<?xml version="1.0" standalone="no"?>
<!DOCTYPE svg PUBLIC "-//W3C//DTD SVG 20010904//EN"
 "http://www.w3.org/TR/2001/REC-SVG-20010904/DTD/svg10.dtd">
<svg version="1.0" xmlns="http://www.w3.org/2000/svg"
 width="917.000000pt" height="917.000000pt" viewBox="0 0 917.000000 917.000000"
 preserveAspectRatio="xMidYMid meet">
<metadata>
Created by potrace 1.11, written by Peter Selinger 2001-2013
</metadata>
<g transform="translate(0.000000,917.000000) scale(0.100000,-0.100000)"
fill="#000000" stroke="none">
<path d="M7489 9159 c-85 -11 -295 -71 -356 -103 -141 -71 -261 -208 -358
-408 -98 -204 -144 -418 -199 -938 -37 -343 -60 -489 -121 -770 -30 -135 -64
-297 -75 -360 -53 -282 -183 -608 -347 -866 -86 -134 -253 -368 -296 -412 -23
-24 -71 -65 -107 -91 -61 -45 -189 -121 -204 -121 -11 0 23 49 129 183 211
270 237 305 297 402 212 343 335 722 438 1350 41 257 61 559 59 935 -1 261 3
319 37 450 23 92 101 236 168 314 107 122 134 167 152 245 9 40 14 74 11 77
-3 3 -38 8 -79 11 -135 10 -328 -63 -510 -194 -92 -66 -266 -234 -303 -293
-30 -47 -159 -363 -217 -530 -58 -169 -127 -404 -254 -870 -128 -471 -135
-492 -181 -604 -45 -106 -126 -259 -174 -327 -137 -194 -343 -400 -434 -435
-22 -9 -7 28 27 67 285 322 457 658 578 1124 63 243 75 333 75 560 0 171 -3
217 -24 315 -40 199 -147 442 -217 493 l-24 18 -16 -36 c-8 -20 -60 -217 -114
-438 -136 -550 -137 -551 -174 -643 -86 -212 -269 -416 -509 -569 -32 -20 -60
-35 -62 -33 -2 1 35 44 82 93 151 160 266 333 376 565 131 275 167 485 137
795 -11 114 -60 355 -71 355 -12 0 -53 -58 -89 -128 -18 -34 -60 -92 -93 -128
-148 -161 -324 -235 -977 -410 -314 -83 -564 -176 -825 -304 -267 -131 -389
-210 -600 -386 -333 -279 -547 -595 -688 -1015 -128 -379 -125 -856 8 -1584
13 -71 33 -184 45 -250 29 -164 39 -193 71 -216 27 -19 28 -19 34 1 22 71 229
323 411 502 303 298 559 453 824 498 114 20 268 16 384 -10 94 -21 237 -71
264 -92 20 -17 14 -44 -23 -117 -76 -152 -132 -420 -119 -571 20 -241 106
-429 273 -599 122 -125 259 -222 446 -314 178 -89 294 -122 650 -185 l39 -8
-384 -257 c-212 -142 -432 -291 -490 -331 -182 -128 -601 -408 -930 -621 -61
-40 -208 -128 -400 -242 -135 -80 -455 -253 -468 -253 -9 0 -12 112 -12 467 0
286 -3 470 -9 476 -5 5 -16 7 -24 4 -23 -9 -335 -448 -467 -659 -208 -331
-405 -678 -568 -1003 -64 -127 -93 -187 -197 -410 -64 -138 -136 -308 -131
-312 9 -9 78 30 581 327 266 156 713 413 985 565 58 32 202 113 320 180 118
67 260 147 315 177 55 31 154 86 220 123 66 38 155 88 198 111 44 24 84 47 90
52 7 5 57 33 112 62 55 29 105 56 110 60 6 4 33 20 60 35 76 41 223 124 285
160 30 17 118 67 195 110 77 43 255 143 395 223 249 142 308 175 498 281 51
28 110 62 130 76 20 14 40 25 43 25 4 0 43 21 86 47 83 50 108 63 393 222 102
57 205 116 230 131 25 15 70 41 100 57 578 311 1162 688 1504 972 110 91 360
336 437 429 399 479 613 961 689 1550 25 194 28 719 5 932 -26 243 -53 341
-189 688 -110 279 -224 614 -260 762 -42 175 -49 257 -43 462 3 103 2 188 -2
188 -32 0 -232 -351 -304 -535 -56 -140 -102 -379 -128 -665 -14 -144 -15
-788 -1 -802 17 -17 44 33 153 283 114 264 142 309 194 309 41 0 88 -52 133
-147 36 -76 45 -108 61 -224 39 -273 36 -406 -14 -669 -66 -342 -127 -554
-202 -705 -61 -120 -272 -469 -350 -578 -364 -507 -837 -851 -1353 -983 -165
-42 -165 -43 18 133 174 166 248 255 358 423 122 188 257 446 325 617 16 43
36 92 43 108 53 118 110 344 185 730 119 613 166 910 277 1745 25 189 63 431
78 495 22 92 72 226 109 291 40 72 52 101 72 180 18 74 19 116 3 132 -14 14
-136 14 -239 1z"/>
</g>
</svg>
